<?xml version="1.0" encoding="UTF-8" standalone="no"?>
<svg
   class="external-icon"
   viewBox="0 0 28.57  20"
   focusable="false"
   style="pointer-events: none; display: block; width: 100%; height: 100%;"
   version="1.1"
   id="svg3"
   sodipodi:docname="YouTube Playlist Organiser.svg"
   inkscape:version="1.4 (1:1.4+202410161351+e7c3feb100)"
   xmlns:inkscape="http://www.inkscape.org/namespaces/inkscape"
   xmlns:sodipodi="http://sodipodi.sourceforge.net/DTD/sodipodi-0.dtd"
   xmlns="http://www.w3.org/2000/svg"
   xmlns:svg="http://www.w3.org/2000/svg">
  <defs
     id="defs3" />
  <sodipodi:namedview
     id="namedview3"
     pagecolor="#ffffff"
     bordercolor="#000000"
     borderopacity="0.25"
     inkscape:showpageshadow="2"
     inkscape:pageopacity="0.0"
     inkscape:pagecheckerboard="0"
     inkscape:deskcolor="#d1d1d1"
     inkscape:zoom="32"
     inkscape:cx="15.609375"
     inkscape:cy="9.859375"
     inkscape:window-width="1920"
     inkscape:window-height="945"
     inkscape:window-x="0"
     inkscape:window-y="0"
     inkscape:window-maximized="1"
     inkscape:current-layer="svg3" />
  <g
     id="g3">
    <path
       d="M 27.97265,3.1232396 C 27.64345,1.8932296 26.67675,0.926623 25.44675,0.597366 23.21965,0 14.28495,0 14.28495,0 14.28495,0 5.35037,0 3.12318,0.597366 1.89318,0.926623 0.926573,1.8932296 0.597316,3.1232396 -5e-5,5.3504196 -5e-5,9.9999996 -5e-5,9.9999996 c 0,0 0,4.6496004 0.597366,6.8768004 0.329257,1.23 1.295864,2.1966 2.525864,2.5258 C 5.35037,20 14.28495,20 14.28495,20 c 0,0 8.9347,0 11.1618,-0.5974 1.23,-0.3292 2.1967,-1.2958 2.5259,-2.5258 0.5974,-2.2272 0.5974,-6.8768004 0.5974,-6.8768004 0,0 -0.0024,-4.64958 -0.5974,-6.87676 z"
       fill="#ff0000"
       id="path1-3"
       style="display:block" />
    <g
       id="g2">
      <path
         d="M 2.9850299,14.2854 10.40743,10.0004 2.9850299,5.7153296 Z"
         fill="#ffffff"
         id="path2-6"
         style="display:block" />
      <g
         id="g1">
        <rect
           style="fill:#ffffff;stroke-width:8.5232;stroke-linecap:round;stroke-linejoin:round"
           id="rect4"
           width="12.875698"
           height="1.7106372"
           x="12.806459"
           y="6.1297908"
           ry="0.85531861" />
        <rect
           style="fill:#ffffff;stroke-width:8.5232;stroke-linecap:round;stroke-linejoin:round"
           id="rect5"
           width="12.875698"
           height="1.7106372"
           x="12.806459"
           y="9.1450462"
           ry="0.85531861" />
        <rect
           style="fill:#ffffff;stroke-width:8.5232;stroke-linecap:round;stroke-linejoin:round"
           id="rect6"
           width="12.875698"
           height="1.7106372"
           x="12.806459"
           y="12.160302"
           ry="0.85531861" />
      </g>
    </g>
  </g>
</svg>
